/* XPM */
static char *_7d9cb786bed4365eec9c7c8529e6d00lPCFd44FxgouO9Y7[] = {
/* columns rows colors chars-per-pixel */
"64 64 6 1 ",
"  c #58232F",
". c #763372",
"X c #7E747E",
"o c #B9384D",
"O c #F0BA5C",
"+ c #E9DDE8",
/* pixels */
"OOOOOOOOOOOOOOOOOOOO            OOOO        OOOOOOOOOOOOOOOOOOOO",
"OOOOOOOOOOOOOOOOOOOO            OOOO        OOOOOOOOOOOOOOOOOOOO",
"OOOOOOOOOOOOOOOOOOOO            OOOO        OOOOOOOOOOOOOOOOOOOO",
"OOOOOOOOOOOOOOOOOOOO            OOOO        OOOOOOOOOOOOOOOOOOOO",
"OOOOOOOOOOOOOOOO    ooooOOOOoooo    ooooOOOO    OOOOOOOOOOOOOOOO",
"OOOOOOOOOOOOOOOO    ooooOOOOoooo    ooooOOOO    OOOOOOOOOOOOOOOO",
"OOOOOOOOOOOOOOOO    ooooOOOOoooo    ooooOOOO    OOOOOOOOOOOOOOOO",
"OOOOOOOOOOOOOOOO    ooooOOOOoooo    ooooOOOO    OOOOOOOOOOOOOOOO",
"OOOOOOOO    OOOO    ooooooooOOOOOOOOOOOOOOOO    OOOO    OOOOOOOO",
"OOOOOOOO    OOOO    ooooooooOOOOOOOOOOOOOOOO    OOOO    OOOOOOOO",
"OOOOOOOO    OOOO    ooooooooOOOOOOOOOOOOOOOO    OOOO    OOOOOOOO",
"OOOOOOOO    OOOO    ooooooooOOOOOOOOOOOOOOOO    OOOO    OOOOOOOO",
"OOOO    oooo        oooooooooooooooooooooooo        oooo    OOOO",
"OOOO    oooo        oooooooooooooooooooooooo        oooo    OOOO",
"OOOO    oooo        oooooooooooooooooooooooo        oooo    OOOO",
"OOOO    oooo        oooooooooooooooooooooooo        oooo    OOOO",
"OOOO    ooooOOOOoooo                        ooooOOOOoooo    OOOO",
"OOOO    ooooOOOOoooo                        ooooOOOOoooo    OOOO",
"OOOO    ooooOOOOoooo                        ooooOOOOoooo    OOOO",
"OOOO    ooooOOOOoooo                        ooooOOOOoooo    OOOO",
"OOOOOOOO    ooooOOOOOOOOOOOOOOOOOOOOOOOOOOOOOOOOoooo    OOOOOOOO",
"OOOOOOOO    ooooOOOOOOOOOOOOOOOOOOOOOOOOOOOOOOOOoooo    OOOOOOOO",
"OOOOOOOO    ooooOOOOOOOOOOOOOOOOOOOOOOOOOOOOOOOOoooo    OOOOOOOO",
"OOOOOOOO    ooooOOOOOOOOOOOOOOOOOOOOOOOOOOOOOOOOoooo    OOOOOOOO",
"OOOOOOOOOOOO                                        OOOOOOOOOOOO",
"OOOOOOOOOOOO                                        OOOOOOOOOOOO",
"OOOOOOOOOOOO                                        OOOOOOOOOOOO",
"OOOOOOOOOOOO                                        OOOOOOOOOOOO",
"OOOOOOOOOOOO        oooo    oooooooo    oooo        OOOOOOOOOOOO",
"OOOOOOOOOOOO        oooo    oooooooo    oooo        OOOOOOOOOOOO",
"OOOOOOOOOOOO        oooo    oooooooo    oooo        OOOOOOOOOOOO",
"OOOOOOOOOOOO        oooo    oooooooo    oooo        OOOOOOOOOOOO",
"OOOOOOOOOOOO        OOOO    OOOOOOOO    OOOO        OOOOOOOOOOOO",
"OOOOOOOOOOOO        OOOO    OOOOOOOO    OOOO        OOOOOOOOOOOO",
"OOOOOOOOOOOO        OOOO    OOOOOOOO    OOOO        OOOOOOOOOOOO",
"OOOOOOOOOOOO        OOOO    OOOOOOOO    OOOO        OOOOOOOOOOOO",
"OOOOOOOO    oooo    ooooOOOOOOOOOOOOOOOOoooo    oooo    OOOO    ",
"OOOOOOOO    oooo    ooooOOOOOOOOOOOOOOOOoooo    oooo    OOOO    ",
"OOOOOOOO    oooo    ooooOOOOOOOOOOOOOOOOoooo    oooo    OOOO    ",
"OOOOOOOO    oooo    ooooOOOOOOOOOOOOOOOOoooo    oooo    OOOO    ",
"OOOO    oooooooooooo....    oooooooo    ....oooooooooooo    XXXX",
"OOOO    oooooooooooo....    oooooooo    ....oooooooooooo    XXXX",
"OOOO    oooooooooooo....    oooooooo    ....oooooooooooo    XXXX",
"OOOO    oooooooooooo....    oooooooo    ....oooooooooooo    XXXX",
"    OOOOOOOO    oooooooo................oooooooo    OOOOOOOO    ",
"    OOOOOOOO    oooooooo................oooooooo    OOOOOOOO    ",
"    OOOOOOOO    oooooooo................oooooooo    OOOOOOOO    ",
"    OOOOOOOO    oooooooo................oooooooo    OOOOOOOO    ",
"    OOOOoooo        oooooooooooooooooooooooo        oooo++++    ",
"    OOOOoooo        oooooooooooooooooooooooo        oooo++++    ",
"    OOOOoooo        oooooooooooooooooooooooo        oooo++++    ",
"    OOOOoooo        oooooooooooooooooooooooo        oooo++++    ",
"OOOO        OOOO    ........        ........    OOOO    ++++    ",
"OOOO        OOOO    ........        ........    OOOO    ++++    ",
"OOOO        OOOO    ........        ........    OOOO    ++++    ",
"OOOO        OOOO    ........        ........    OOOO    ++++    ",
"OOOOOOOOOOOOOOOO    ....oooo        oooo....    OOOO    XXXX    ",
"OOOOOOOOOOOOOOOO    ....oooo        oooo....    OOOO    XXXX    ",
"OOOOOOOOOOOOOOOO    ....oooo        oooo....    OOOO    XXXX    ",
"OOOOOOOOOOOOOOOO    ....oooo        oooo....    OOOO    XXXX    ",
"OOOOOOOOOOOO    OOOOOOOOoooo        ooooOOOOOOOO    OOOO        ",
"OOOOOOOOOOOO    OOOOOOOOoooo        ooooOOOOOOOO    OOOO        ",
"OOOOOOOOOOOO    OOOOOOOOoooo        ooooOOOOOOOO    OOOO        ",
"OOOOOOOOOOOO    OOOOOOOOoooo        ooooOOOOOOOO    OOOO        "
};
